<?xml version="1.0" encoding="UTF-8"?>
<svg xmlns="http://www.w3.org/2000/svg" xmlns:xlink="http://www.w3.org/1999/xlink" viewBox="0 0 48 48" width="48px" height="48px">
<g id="surface151413605">
<path style=" stroke:none;fill-rule:nonzero;fill:rgb(100%,100%,100%);fill-opacity:1;" d="M 13.5 6 C 9.375 6 6 9.375 6 13.5 L 6 34.5 C 6 38.625 9.375 42 13.5 42 L 34.5 42 C 38.625 42 42 38.625 42 34.5 L 42 13.5 C 42 9.375 38.625 6 34.5 6 Z M 13.5 9 L 34.5 9 C 37.003906 9 39 10.996094 39 13.5 L 39 18 L 30.597656 18 C 28.949219 16.1875 26.632812 15 24 15 C 21.367188 15 19.050781 16.1875 17.402344 18 L 9 18 L 9 13.5 C 9 10.996094 10.996094 9 13.5 9 Z M 31.5 12 C 30.960938 11.992188 30.457031 12.277344 30.183594 12.742188 C 29.910156 13.210938 29.910156 13.789062 30.183594 14.257812 C 30.457031 14.722656 30.960938 15.007812 31.5 15 L 34.5 15 C 35.039062 15.007812 35.542969 14.722656 35.816406 14.257812 C 36.089844 13.789062 36.089844 13.210938 35.816406 12.742188 C 35.542969 12.277344 35.039062 11.992188 34.5 12 Z M 24 18 C 27.332031 18 30 20.667969 30 24 C 30 27.332031 27.332031 30 24 30 C 20.667969 30 18 27.332031 18 24 C 18 20.667969 20.667969 18 24 18 Z M 9 21 L 15.609375 21 C 15.265625 21.949219 15 22.9375 15 24 C 15 28.953125 19.046875 33 24 33 C 28.953125 33 33 28.953125 33 24 C 33 22.9375 32.734375 21.949219 32.390625 21 L 39 21 L 39 34.5 C 39 37.003906 37.003906 39 34.5 39 L 13.5 39 C 10.996094 39 9 37.003906 9 34.5 Z M 9 21 "/>
</g>
</svg>
